<svg width="344" height="203" viewBox="0 0 344 203" fill="none" xmlns="http://www.w3.org/2000/svg">
<path d="M321.87 98.4615L242.273 20.6699L206.979 126.224L321.87 98.4615Z" stroke="#F7AF36" stroke-width="4"/>
<path d="M9.216 175V79.64H72.832V95H26.624V121.368H67.072V136.728H26.624V175H9.216ZM70.033 175L102.929 79.64H125.457L158.353 175H139.409L132.625 154.52H95.761L88.849 175H70.033ZM100.753 139.16H127.633L111.761 91.672H116.625L100.753 139.16ZM212.067 176.536C205.07 176.536 198.542 175.299 192.483 172.824C186.424 170.349 181.134 166.893 176.611 162.456C172.088 158.019 168.547 152.813 165.987 146.84C163.512 140.781 162.275 134.253 162.275 127.256C162.275 120.173 163.512 113.645 165.987 107.672C168.462 101.699 171.96 96.4933 176.483 92.056C181.006 87.6187 186.296 84.2053 192.355 81.816C198.414 79.3413 204.984 78.104 212.067 78.104C219.15 78.104 225.72 79.3413 231.779 81.816C237.838 84.2907 243.128 87.7467 247.651 92.184C252.174 96.536 255.672 101.699 258.147 107.672C260.707 113.645 261.987 120.173 261.987 127.256C261.987 134.253 260.707 140.781 258.147 146.84C255.587 152.813 252.046 158.019 247.523 162.456C243 166.893 237.71 170.349 231.651 172.824C225.678 175.299 219.15 176.536 212.067 176.536ZM212.067 160.664C216.76 160.664 221.07 159.853 224.995 158.232C228.92 156.525 232.334 154.179 235.235 151.192C238.222 148.205 240.483 144.664 242.019 140.568C243.64 136.472 244.451 132.035 244.451 127.256C244.451 122.477 243.64 118.083 242.019 114.072C240.483 109.976 238.222 106.435 235.235 103.448C232.334 100.376 228.92 98.0293 224.995 96.408C221.07 94.7867 216.76 93.976 212.067 93.976C207.459 93.976 203.192 94.7867 199.267 96.408C195.342 98.0293 191.886 100.376 188.899 103.448C185.998 106.435 183.736 109.976 182.115 114.072C180.494 118.083 179.683 122.477 179.683 127.256C179.683 132.035 180.494 136.472 182.115 140.568C183.736 144.664 185.998 148.205 188.899 151.192C191.886 154.179 195.342 156.525 199.267 158.232C203.192 159.853 207.459 160.664 212.067 160.664ZM234.083 186.52L204.387 136.856H222.563L252.643 186.52H234.083Z" fill="white"/>
</svg>
